<svg xmlns="http://www.w3.org/2000/svg" width="12" height="12" viewBox="0 0 12 12" fill="none">
  <g clip-path="url(#clip0_7427_5352)">
    <path d="M11.0041 7.42969C11.1715 7.24289 11.2734 6.99633 11.2734 6.72656C11.2734 6.14508 10.8002 5.67188 10.2188 5.67188H8.17172C8.37445 5.05664 8.46094 4.24031 8.46094 3.89039V3.53906C8.46094 2.76375 7.83 2.13281 7.05469 2.13281H6.70312C6.54188 2.13281 6.40125 2.2425 6.36211 2.39906L6.17063 3.16523C5.90227 4.2382 5.05031 5.42203 4.16859 5.63719C4.01414 5.24625 3.63281 4.96875 3.1875 4.96875H1.07812C0.884063 4.96875 0.726562 5.12625 0.726562 5.32031V11.6484C0.726562 11.8425 0.884063 12 1.07812 12H3.1875C3.6068 12 3.96961 11.7541 4.13953 11.3988L5.3475 11.8015C5.74242 11.9332 6.15398 12 6.57047 12H9.51562C10.0971 12 10.5703 11.5268 10.5703 10.9453C10.5703 10.8082 10.5441 10.677 10.4963 10.5567C10.9434 10.4346 11.2734 10.0247 11.2734 9.53906C11.2734 9.2693 11.1715 9.02273 11.0041 8.83594C11.1715 8.64914 11.2734 8.40258 11.2734 8.13281C11.2734 7.86305 11.1715 7.61648 11.0041 7.42969ZM3.53906 10.9453C3.53906 11.1391 3.38133 11.2969 3.1875 11.2969H1.42969V5.67188H3.1875C3.38133 5.67188 3.53906 5.82961 3.53906 6.02344V10.9453ZM9.51562 7.78125H10.2188C10.4126 7.78125 10.5703 7.93898 10.5703 8.13281C10.5703 8.32664 10.4126 8.48438 10.2188 8.48438H9.51562C9.32156 8.48438 9.16406 8.64188 9.16406 8.83594C9.16406 9.03 9.32156 9.1875 9.51562 9.1875H10.2188C10.4126 9.1875 10.5703 9.34523 10.5703 9.53906C10.5703 9.73289 10.4126 9.89062 10.2188 9.89062H9.51562C9.32156 9.89062 9.16406 10.0481 9.16406 10.2422C9.16406 10.4363 9.32156 10.5938 9.51562 10.5938C9.70945 10.5938 9.86719 10.7515 9.86719 10.9453C9.86719 11.1391 9.70945 11.2969 9.51562 11.2969H6.57047C6.22969 11.2969 5.89289 11.2423 5.56969 11.1345L4.24219 10.692V6.34172C4.79367 6.23695 5.33344 5.88773 5.8207 5.31609C6.29648 4.75781 6.68227 4.01766 6.85266 3.33586L6.97758 2.83594H7.05469C7.44234 2.83594 7.75781 3.15141 7.75781 3.53906V3.89039C7.75781 4.36242 7.61016 5.26781 7.42125 5.67188H6.70312C6.50906 5.67188 6.35156 5.82938 6.35156 6.02344C6.35156 6.2175 6.50906 6.375 6.70312 6.375H10.2188C10.4126 6.375 10.5703 6.53273 10.5703 6.72656C10.5703 6.92039 10.4126 7.07813 10.2188 7.07813H9.51562C9.32156 7.07813 9.16406 7.23563 9.16406 7.42969C9.16406 7.62375 9.32156 7.78125 9.51562 7.78125Z" fill="#474747"/>
    <path d="M2.48438 10.5938C2.67854 10.5938 2.83594 10.4364 2.83594 10.2422C2.83594 10.048 2.67854 9.89062 2.48438 9.89062C2.29021 9.89062 2.13281 10.048 2.13281 10.2422C2.13281 10.4364 2.29021 10.5938 2.48438 10.5938Z" fill="#474747"/>
    <path d="M7.40625 0C7.21209 0 7.05469 0.157406 7.05469 0.351562V1.07812C7.05469 1.27228 7.21209 1.42969 7.40625 1.42969C7.60041 1.42969 7.75781 1.27228 7.75781 1.07812V0.351562C7.75781 0.157406 7.60041 0 7.40625 0Z" fill="#474747"/>
    <path d="M5.91469 1.55034L5.41751 1.05316C5.28023 0.915867 5.05763 0.915867 4.92033 1.05316C4.78303 1.19046 4.78303 1.41305 4.92033 1.55034L5.41751 2.04752C5.55478 2.1848 5.77741 2.18482 5.91469 2.04752C6.05198 1.91023 6.05198 1.68764 5.91469 1.55034Z" fill="#474747"/>
    <path d="M9.89217 1.05316C9.7549 0.915867 9.53229 0.915867 9.39499 1.05316L8.89781 1.55032C8.76052 1.68762 8.76052 1.9102 8.89781 2.0475C9.03509 2.1848 9.2577 2.18482 9.39499 2.04752L9.89217 1.55034C10.0295 1.41305 10.0295 1.19046 9.89217 1.05316Z" fill="#474747"/>
  </g>
  <defs>
    <clipPath id="clip0_7427_5352">
      <rect width="12" height="12" fill="white"/>
    </clipPath>
  </defs>
</svg>
