<svg width="20" height="20" viewBox="0 0 20 20" fill="none" xmlns="http://www.w3.org/2000/svg">
<path fill-rule="evenodd" clip-rule="evenodd" d="M0 14.9V5.1C0 4.5428 0.225714 4.0094 0.628571 3.6146C1.02857 3.2212 1.57429 3 2.14286 3H17.8571C18.4257 3 18.9714 3.2212 19.3714 3.6146C19.7743 4.0094 20 4.5428 20 5.1V14.9C20 15.4572 19.7743 15.9906 19.3714 16.3854C18.9714 16.7788 18.4257 17 17.8571 17H2.14286C1.57429 17 1.02857 16.7788 0.628571 16.3854C0.225714 15.9906 0 15.4572 0 14.9ZM18.5714 5.8V5.1C18.5714 4.9138 18.4971 4.73601 18.3629 4.60441C18.2286 4.47421 18.0457 4.4 17.8571 4.4H2.14286C1.95429 4.4 1.77143 4.47421 1.63714 4.60441C1.50286 4.73601 1.42857 4.9138 1.42857 5.1V5.8H18.5714ZM18.5714 8.6V7.2H1.42857V8.6H18.5714ZM1.42857 10V14.9C1.42857 15.0862 1.50286 15.264 1.63714 15.3956C1.77143 15.5258 1.95429 15.6 2.14286 15.6H17.8571C18.0457 15.6 18.2286 15.5258 18.3629 15.3956C18.4971 15.264 18.5714 15.0862 18.5714 14.9V10H1.42857ZM3.57143 14.2C3.17714 14.2 2.85714 13.8864 2.85714 13.5C2.85714 13.1136 3.17714 12.8 3.57143 12.8H5.71429C6.10857 12.8 6.42857 13.1136 6.42857 13.5C6.42857 13.8864 6.10857 14.2 5.71429 14.2H3.57143Z" fill="#ABB0C2"/>
</svg>
