<svg width="20" height="20" viewBox="0 0 20 20" fill="none" xmlns="http://www.w3.org/2000/svg">
  <path
    d="M2.9291 2.92862C3.41726 2.44046 4.20872 2.44046 4.69687 2.92862L17.0712 15.303C17.5594 15.7911 17.5594 16.5826 17.0712 17.0708C16.5831 17.5589 15.7916 17.5589 15.3035 17.0708L2.9291 4.69638C2.44095 4.20823 2.44095 3.41677 2.9291 2.92862Z"
    fill="#787E94"/>
  <path
    d="M2.9291 17.0708C2.44095 16.5826 2.44095 15.7911 2.9291 15.303L15.3035 2.92862C15.7916 2.44046 16.5831 2.44046 17.0712 2.92862C17.5594 3.41677 17.5594 4.20823 17.0712 4.69638L4.69687 17.0708C4.20872 17.5589 3.41726 17.5589 2.9291 17.0708Z"
    fill="#787E94"/>
</svg>
