<svg width="16" height="16" viewBox="0 0 16 16" fill="#787E94" xmlns="http://www.w3.org/2000/svg">
  <path fill-rule="evenodd" clip-rule="evenodd"
        d="M5.2638 4.56712C5.61933 4.48901 6.03778 4.46503 6.51163 4.46503H9.48837C9.9622 4.46503 10.3807 4.48901 10.7362 4.56712C11.098 4.64661 11.4294 4.78959 11.692 5.05214C11.9545 5.31469 12.0975 5.64605 12.177 6.00791C12.2551 6.36344 12.2791 6.78186 12.2791 7.25576V15.4419C12.2791 15.7501 12.0292 16 11.7209 16H4.27907C3.97082 16 3.72093 15.7501 3.72093 15.4419V7.25576C3.72093 6.78186 3.74492 6.36344 3.82302 6.00791C3.90252 5.64605 4.04548 5.31469 4.30803 5.05214C4.57058 4.78959 4.90195 4.64661 5.2638 4.56712ZM4.9133 6.24742C4.86141 6.48365 4.83721 6.80605 4.83721 7.25576V14.8837H11.1628V7.25576C11.1628 6.80605 11.1386 6.48365 11.0867 6.24742C11.0362 6.01751 10.9674 5.90618 10.9026 5.84147C10.838 5.77676 10.7266 5.70792 10.4967 5.65741C10.2605 5.60552 9.93808 5.58132 9.48837 5.58132H6.51163C6.06194 5.58132 5.73955 5.60552 5.50331 5.65741C5.27341 5.70792 5.16207 5.77676 5.09736 5.84147C5.03265 5.90618 4.96381 6.01751 4.9133 6.24742Z"
        />
  <path fill-rule="evenodd" clip-rule="evenodd"
        d="M6.69767 7.99996C6.69767 7.69171 6.94757 7.44181 7.25581 7.44181H8.74419C9.05243 7.44181 9.30233 7.69171 9.30233 7.99996C9.30233 8.3082 9.05243 8.5581 8.74419 8.5581H7.25581C6.94757 8.5581 6.69767 8.3082 6.69767 7.99996ZM6.69767 10.2325C6.69767 9.92428 6.94757 9.67438 7.25581 9.67438H8.74419C9.05243 9.67438 9.30233 9.92428 9.30233 10.2325C9.30233 10.5408 9.05243 10.7907 8.74419 10.7907H7.25581C6.94757 10.7907 6.69767 10.5408 6.69767 10.2325ZM6.69767 12.4651C6.69767 12.1569 6.94757 11.907 7.25581 11.907H8.74419C9.05243 11.907 9.30233 12.1569 9.30233 12.4651C9.30233 12.7733 9.05243 13.0232 8.74419 13.0232H7.25581C6.94757 13.0232 6.69767 12.7733 6.69767 12.4651Z"
        />
  <path fill-rule="evenodd" clip-rule="evenodd"
        d="M9.41306 0.0330716C9.62314 0.0811463 9.84781 0.179632 10.075 0.295622L13.3306 1.9579C13.7099 2.15158 14.0322 2.31611 14.2847 2.48021C14.554 2.65518 14.7832 2.85347 14.9529 3.13392C15.1222 3.41367 15.1926 3.70953 15.2252 4.03085C15.2558 4.33356 15.2558 4.70028 15.2558 5.13424V15.4419C15.2558 15.7501 15.0059 16 14.6977 16C14.3894 16 14.1395 15.7501 14.1395 15.4419V5.16132C14.1395 4.69306 14.1389 4.38316 14.1146 4.14329C14.0915 3.91574 14.0509 3.79944 13.9979 3.7119C13.9453 3.62506 13.8631 3.53751 13.6766 3.41626C13.4787 3.28768 13.2089 3.14917 12.7984 2.93953L9.5674 1.28982C9.46344 1.23675 9.3798 1.1984 9.31319 1.17132C9.30642 1.24784 9.30233 1.34648 9.30233 1.47244V4.80252C9.30233 5.11077 9.05243 5.36066 8.74419 5.36066C8.43594 5.36066 8.18605 5.11077 8.18605 4.80252V1.47244C8.18605 1.21991 8.19907 0.977419 8.24752 0.770051C8.2947 0.567988 8.39769 0.303562 8.65555 0.136678C8.91818 -0.0332878 9.20476 -0.0145714 9.41306 0.0330716ZM9.1357 1.11603C9.13407 1.11598 9.13317 1.11585 9.13317 1.11585L9.1357 1.11603Z"
        />
  <path fill-rule="evenodd" clip-rule="evenodd"
        d="M1.86666 8.56427C1.86297 8.60721 1.86047 8.66541 1.86047 8.74415V15.4419C1.86047 15.7501 1.61057 16 1.30233 16C0.994076 16 0.744186 15.7501 0.744186 15.4419V8.74415C0.744186 8.57812 0.752112 8.40666 0.78688 8.24837C0.82304 8.08375 0.895405 7.89994 1.04887 7.74648C1.20234 7.59303 1.38613 7.52062 1.55073 7.48445C1.70901 7.4497 1.88051 7.44181 2.04651 7.44181H4.27907C4.58732 7.44181 4.83721 7.69171 4.83721 7.99996C4.83721 8.3082 4.58732 8.5581 4.27907 8.5581H2.04651C1.96784 8.5581 1.90959 8.56055 1.86666 8.56427Z"
        />
  <path fill-rule="evenodd" clip-rule="evenodd"
        d="M0 15.4419C0 15.1336 0.24989 14.8837 0.55814 14.8837H15.4419C15.7501 14.8837 16 15.1336 16 15.4419C16 15.7501 15.7501 16 15.4419 16H0.55814C0.24989 16 0 15.7501 0 15.4419Z"
        />
</svg>
