<svg width="12" height="12" viewBox="0 0 12 12" fill="474747" xmlns="http://www.w3.org/2000/svg">
  <path fill-rule="evenodd" clip-rule="evenodd"
        d="M4.6582 1.189e-05H6.74186C6.87521 -7.42637e-05 6.99137 -0.000148043 7.10105 0.0173473C7.53444 0.086461 7.90946 0.356399 8.1122 0.74513C8.16347 0.843524 8.20013 0.953604 8.24222 1.07996L8.31105 1.28605C8.3227 1.32094 8.32602 1.33082 8.3288 1.33859C8.43676 1.63651 8.71652 1.8379 9.03362 1.84593C9.042 1.84614 9.05217 1.84617 9.0892 1.84617H10.9378C11.1931 1.84617 11.4 2.05281 11.4 2.30771C11.4 2.56261 11.1931 2.76925 10.9378 2.76925H0.46216C0.206918 2.76925 0 2.56261 0 2.30771C0 2.05281 0.206918 1.84617 0.46216 1.84617H2.31085C2.34785 1.84617 2.35806 1.84614 2.3664 1.84593C2.68353 1.8379 2.96331 1.63653 3.07122 1.33861C3.07406 1.33078 3.07732 1.32111 3.08902 1.28605L3.1578 1.07998C3.19988 0.953628 3.23655 0.843524 3.28786 0.74513C3.49056 0.356399 3.86558 0.086461 4.29897 0.0173473C4.40866 -0.000148043 4.52485 -7.42637e-05 4.6582 1.189e-05ZM3.85635 1.84617C3.88809 1.78401 3.91622 1.71941 3.94042 1.6526C3.94777 1.63232 3.95498 1.61072 3.96423 1.58297L4.02573 1.39872C4.08191 1.23041 4.09485 1.19608 4.10768 1.17147C4.17525 1.04189 4.30026 0.951912 4.44472 0.928872C4.47217 0.924496 4.50883 0.923099 4.68648 0.923099H6.71352C6.89117 0.923099 6.9279 0.924496 6.95532 0.928872C7.09976 0.951912 7.22479 1.04189 7.29239 1.17147C7.3052 1.19608 7.31814 1.2304 7.37428 1.39872L7.43578 1.58286L7.45963 1.65261C7.48384 1.71942 7.51194 1.78401 7.54368 1.84617H3.85635Z"
        />
  <path
    d="M1.95037 3.81547C1.93339 3.56113 1.71317 3.3687 1.45849 3.38565C1.20381 3.40261 1.01112 3.62253 1.0281 3.87687L1.31368 8.15484C1.36637 8.94425 1.40892 9.58185 1.50873 10.0822C1.6125 10.6024 1.789 11.0369 2.15354 11.3775C2.51809 11.7181 2.96395 11.865 3.4906 11.9338C3.99714 12 4.637 12 5.42921 12H5.97079C6.763 12 7.40287 12 7.90946 11.9338C8.43608 11.865 8.88197 11.7181 9.24652 11.3775C9.61107 11.0369 9.78756 10.6024 9.89133 10.0822C9.99115 9.58185 10.0337 8.94425 10.0864 8.15484L10.372 3.87687C10.3889 3.62253 10.1962 3.40261 9.94155 3.38565C9.68687 3.3687 9.46663 3.56113 9.44969 3.81547L9.16623 8.06105C9.11089 8.89053 9.07146 9.46764 8.98482 9.90185C8.90076 10.3231 8.7835 10.546 8.61503 10.7034C8.44655 10.8608 8.21597 10.9629 7.78955 11.0186C7.34994 11.076 6.7707 11.0769 5.93832 11.0769H5.46174C4.62936 11.0769 4.05009 11.076 3.61048 11.0186C3.18406 10.9629 2.9535 10.8608 2.78502 10.7034C2.61654 10.546 2.49925 10.3231 2.41523 9.90185C2.32862 9.46764 2.28916 8.89053 2.23379 8.06105L1.95037 3.81547Z"
    />
  <path
    d="M4.1135 4.92537C4.36748 4.90001 4.59399 5.08506 4.61938 5.33872L4.92748 8.41564C4.95287 8.66924 4.76758 8.89545 4.51357 8.9208C4.25961 8.94616 4.03313 8.76111 4.00773 8.50745L3.69962 5.43054C3.67423 5.17694 3.85953 4.95072 4.1135 4.92537Z"
    />
  <path
    d="M7.28653 4.92537C7.54054 4.95072 7.72583 5.17694 7.70044 5.43054L7.39234 8.50745C7.36695 8.76111 7.14043 8.94616 6.88649 8.9208C6.63248 8.89545 6.44719 8.66924 6.47258 8.41564L6.78068 5.33872C6.80607 5.08506 7.03259 4.90001 7.28653 4.92537Z"
    />
</svg>
