<svg width="20" height="20" viewBox="0 0 20 20" fill="none" xmlns="http://www.w3.org/2000/svg">
<path d="M15.3125 17.8918H4.6875C2.10281 17.8918 0 15.789 0 13.2043V6.7981C0 4.21341 2.10281 2.1106 4.6875 2.1106H15.3125C17.8972 2.1106 20 4.21341 20 6.7981V13.2043C20 15.789 17.8972 17.8918 15.3125 17.8918ZM4.6875 3.6731C2.96438 3.6731 1.5625 5.07497 1.5625 6.7981V13.2043C1.5625 14.9275 2.96438 16.3293 4.6875 16.3293H15.3125C17.0356 16.3293 18.4375 14.9275 18.4375 13.2043V6.7981C18.4375 5.07497 17.0356 3.6731 15.3125 3.6731H4.6875ZM12.8627 11.3843L16.7243 8.43458C17.0671 8.17267 17.1328 7.68239 16.8709 7.3395C16.6089 6.99661 16.1187 6.93099 15.7758 7.1929L11.9147 10.1422C10.7998 10.9926 9.24285 10.9932 8.12723 10.1444L4.38578 7.23599C4.04512 6.97114 3.55426 7.03267 3.28949 7.37333C3.02469 7.71399 3.08617 8.20481 3.42684 8.46962L7.17117 11.3802C7.17305 11.3817 7.17496 11.3832 7.17688 11.3846C8.01375 12.0229 9.01648 12.342 10.0195 12.342C11.0224 12.342 12.0256 12.0227 12.8627 11.3843Z" fill="#181C30"/>
</svg>
