<svg xmlns="http://www.w3.org/2000/svg" width="20" height="14" viewBox="0 0 20 14" fill="none">
  <path
    d="M20 6.875C20 6.875 16.25 0 10 0C3.75 0 0 6.875 0 6.875C0 6.875 3.75 13.75 10 13.75C16.25 13.75 20 6.875 20 6.875ZM1.46625 6.875C2.06973 5.95573 2.76496 5.1001 3.54125 4.32125C5.15 2.71 7.35 1.25 10 1.25C12.65 1.25 14.8488 2.71 16.46 4.32125C17.2363 5.1001 17.9315 5.95573 18.535 6.875C18.4633 6.98333 18.3821 7.10333 18.2913 7.235C17.8725 7.835 17.2537 8.635 16.46 9.42875C14.8488 11.04 12.6488 12.5 10 12.5C7.35125 12.5 5.15125 11.04 3.54 9.42875C2.76371 8.6499 2.06973 7.79427 1.46625 6.875Z"
    fill="#101828"
  />

  <path
    d="M10 3.75C9.1712 3.75 8.37634 4.07924 7.79029 4.66529C7.20424 5.25134 6.875 6.0462 6.875 6.875C6.875 7.7038 7.20424 8.49866 7.79029 9.08471C8.37634 9.67076 9.1712 10 10 10C10.8288 10 11.6237 9.67076 12.2097 9.08471C12.7958 8.49866 13.125 7.7038 13.125 6.875C13.125 6.0462 12.7958 5.25134 12.2097 4.66529C11.6237 4.07924 10.8288 3.75 10 3.75Z"
    fill="#101828"
  />

  <path
    d="M2 1L18 13"
    stroke="#101828"
    stroke-width="1.5"
    stroke-linecap="round"
  />
</svg>
