<svg width="16" height="16" viewBox="0 0 16 16" fill="none" xmlns="http://www.w3.org/2000/svg">
  <path
    d="M8 3C4.94303 3 2.17081 4.6725 0.125192 7.38908C-0.0417306 7.61164 -0.0417306 7.92257 0.125192 8.14514C2.17081 10.865 4.94303 12.5375 8 12.5375C11.057 12.5375 13.8292 10.865 15.8748 8.14841C16.0417 7.92585 16.0417 7.61491 15.8748 7.39235C13.8292 4.6725 11.057 3 8 3ZM8.21929 11.1268C6.19004 11.2545 4.51427 9.58198 4.64191 7.54945C4.74665 5.87368 6.10494 4.51539 7.78071 4.41066C9.80996 4.28301 11.4857 5.95551 11.3581 7.98803C11.2501 9.66053 9.89179 11.0188 8.21929 11.1268ZM8.11783 9.57543C7.02465 9.64417 6.12131 8.74409 6.19331 7.65092C6.24895 6.74757 6.9821 6.01769 7.88545 5.95878C8.97862 5.89005 9.88197 6.79012 9.80996 7.8833C9.75105 8.78992 9.0179 9.51979 8.11783 9.57543Z"
    fill="#787E94" />
</svg>
