<svg width="16" height="16" viewBox="0 0 16 16" fill="#787E94" xmlns="http://www.w3.org/2000/svg">
  <path
    d="M7.6003 13.3778C7.14871 13.3778 6.71197 13.2106 6.37073 12.9066C4.75202 11.4653 2.03666 8.6025 2.03666 5.625C2.03666 2.6475 4.53257 0 7.6003 0C10.668 0 13.1639 2.52344 13.1639 5.625C13.1639 6.97156 12.6082 8.43344 11.5122 9.97C10.6263 11.2119 9.56457 12.2525 8.82986 12.9066C8.48862 13.2103 8.05188 13.3778 7.6003 13.3778ZM7.6003 1.25C5.21411 1.25 3.27302 3.2125 3.27302 5.625C3.27302 6.48406 3.65444 8.82219 7.18797 11.9688C7.30326 12.0712 7.44977 12.1278 7.6003 12.1278C7.75082 12.1278 7.89733 12.0712 8.01262 11.9688C11.5462 8.82219 11.9276 6.48438 11.9276 5.625C11.9276 3.2125 9.98648 1.25 7.6003 1.25Z"
    />
  <path
    d="M7.6003 16C5.89071 16 4.2751 15.7956 3.05141 15.4244C2.41932 15.2325 1.91302 15.0022 1.54644 14.7394C0.929497 14.2969 0.799988 13.8212 0.799988 13.4997C0.799988 12.8816 1.25559 12.4503 1.63793 12.1972C2.05119 11.9234 2.61961 11.6878 3.32742 11.4963C3.65722 11.4069 3.99599 11.605 4.08439 11.9384C4.17248 12.2719 3.97682 12.6144 3.64702 12.7037C2.44095 13.03 2.08241 13.3994 2.03882 13.4997C2.08086 13.5969 2.42302 13.9528 3.5679 14.2741C4.66084 14.5809 6.09286 14.7497 7.59999 14.7497C9.10711 14.7497 10.5391 14.5806 11.6321 14.2741C12.777 13.9528 13.1191 13.5969 13.1612 13.4997C13.1176 13.3991 12.759 13.03 11.553 12.7037C11.2232 12.6147 11.0272 12.2719 11.1156 11.9384C11.204 11.605 11.5428 11.4069 11.8726 11.4963C12.5807 11.6878 13.1491 11.9234 13.562 12.1972C13.9444 12.4503 14.4 12.8819 14.4 13.4997C14.4 13.8209 14.2705 14.2969 13.6535 14.7394C13.2873 15.0022 12.781 15.2325 12.1486 15.4244C10.9249 15.7956 9.30957 16 7.59968 16H7.6003Z"
    />
  <path
    d="M7.6003 8.125C6.2369 8.125 5.12757 7.00344 5.12757 5.625C5.12757 4.24656 6.2369 3.125 7.6003 3.125C8.9637 3.125 10.073 4.24656 10.073 5.625C10.073 7.00344 8.9637 8.125 7.6003 8.125ZM7.6003 4.375C6.91844 4.375 6.36393 4.93563 6.36393 5.625C6.36393 6.31437 6.91844 6.875 7.6003 6.875C8.28215 6.875 8.83666 6.31437 8.83666 5.625C8.83666 4.93563 8.28215 4.375 7.6003 4.375Z"
    />
</svg>
