<svg width="12" height="12" viewBox="0 0 12 12" fill="none" xmlns="http://www.w3.org/2000/svg">
  <path
    d="M5.98008 11H1.49501C1.21992 11 0.99668 10.776 0.99668 10.5V1.50001C0.99668 1.22401 1.21995 1.00003 1.49501 1.00003H5.98008C6.25566 1.00003 6.47841 0.776533 6.47841 0.500036C6.47841 0.22354 6.25566 0 5.98008 0H1.49501C0.670758 0 0 0.673017 0 1.50001V10.5C0 11.327 0.670758 12 1.49501 12H5.98008C6.25566 12 6.47841 11.7765 6.47841 11.5C6.47841 11.2235 6.25566 11 5.98008 11Z"
    fill="#787E94"/>
  <path
    d="M11.8515 5.64401L8.82159 2.644C8.62624 2.45 8.3103 2.45252 8.11695 2.64901C7.92359 2.84551 7.92558 3.162 8.12194 3.35601L10.2872 5.5H4.48505C4.20947 5.5 3.98672 5.72349 3.98672 5.99999C3.98672 6.27648 4.20947 6.5 4.48505 6.5H10.2872L8.12194 8.64399C7.9256 8.838 7.9241 9.15449 8.11695 9.35099C8.21461 9.44999 8.34319 9.49998 8.47177 9.49998C8.59835 9.49998 8.72491 9.45199 8.82159 9.35597L11.8515 6.35597C11.9462 6.26198 12 6.13396 12 5.99997C12 5.86602 11.9467 5.73852 11.8515 5.64401Z"
    fill="#787E94"/>
</svg>
