<svg width="20" height="20" viewBox="0 0 20 20" fill="none" xmlns="http://www.w3.org/2000/svg">
<path fill-rule="evenodd" clip-rule="evenodd" d="M10 0C4.48103 0 0 4.48103 0 10C0 15.519 4.48103 20 10 20C15.519 20 20 15.519 20 10C20 4.48103 15.519 0 10 0ZM10 1.53846C14.6697 1.53846 18.4615 5.33026 18.4615 10C18.4615 14.6697 14.6697 18.4615 10 18.4615C5.33026 18.4615 1.53846 14.6697 1.53846 10C1.53846 5.33026 5.33026 1.53846 10 1.53846Z" fill="#ABB0C2"/>
<path fill-rule="evenodd" clip-rule="evenodd" d="M8.20513 11.7949H11.0256C11.9097 11.7949 12.7579 11.4441 13.3826 10.8185C14.0082 10.1938 14.359 9.34564 14.359 8.46154C14.359 7.57744 14.0082 6.72923 13.3826 6.10462C12.7579 5.47897 11.9097 5.12821 11.0256 5.12821C9.33641 5.12821 7.4359 5.12821 7.4359 5.12821C7.01128 5.12821 6.66667 5.47282 6.66667 5.89744V14.1026C6.66667 14.5272 7.01128 14.8718 7.4359 14.8718C7.86051 14.8718 8.20513 14.5272 8.20513 14.1026V11.7949ZM8.20513 10.2564H11.0256C11.5015 10.2564 11.958 10.0677 12.2944 9.73026C12.6318 9.39385 12.8205 8.93744 12.8205 8.46154C12.8205 7.98564 12.6318 7.52923 12.2944 7.19282C11.958 6.85538 11.5015 6.66667 11.0256 6.66667H8.20513V10.2564Z" fill="#ABB0C2"/>
</svg>
