<svg width="20" height="20" viewBox="0 0 20 20" fill="none" xmlns="http://www.w3.org/2000/svg">
  <path
    d="M17.8195 3.98682C17.1319 3.7368 16.4569 3.47431 15.7694 3.2243C12.9567 2.17425 10.1441 1.11171 7.3315 0.0616652C6.99399 -0.0758408 6.80648 0.011663 6.66897 0.374179C6.44396 0.986705 6.20645 1.59923 5.98144 2.21176C5.84394 2.57428 5.93144 2.76177 6.29396 2.89927C6.60647 3.01178 6.90648 3.12428 7.2315 3.24929C7.06899 3.67431 6.90648 4.08681 6.75648 4.48683C6.19395 6.0369 6.25645 7.53697 7.08149 8.98703C7.09399 9.01203 7.10649 9.03704 7.11899 9.07454C7.08149 9.08705 7.05649 9.09954 7.03149 9.11204C5.49392 9.64957 4.46888 10.6996 3.86885 12.1997C3.69384 12.6372 3.54384 13.0747 3.36883 13.5247C3.04381 13.4122 2.7438 13.2872 2.43129 13.1747C2.06877 13.0497 1.88126 13.1372 1.74376 13.4872C1.51875 14.0873 1.29374 14.6998 1.06873 15.2998C0.918723 15.6998 0.993726 15.8748 1.39374 16.0248C2.91881 16.5874 4.44388 17.1624 5.95644 17.7374C7.93153 18.4749 9.90661 19.2125 11.8817 19.95C12.1942 20.0625 12.3942 19.9875 12.5067 19.7C12.7567 19.05 13.0067 18.3875 13.2443 17.7249C13.3568 17.4499 13.2568 17.2499 12.9817 17.1374C12.6942 17.0249 12.4067 16.9249 12.1192 16.8124C12.0817 16.7874 12.0317 16.7749 11.9817 16.7499C12.1442 16.3374 12.2942 15.9373 12.4442 15.5248C13.0067 13.9873 12.9442 12.4872 12.1317 11.0371C12.1192 10.9996 12.1067 10.9621 12.0942 10.9246C12.1192 10.9121 12.1442 10.9121 12.1567 10.8996C13.6693 10.3746 14.7068 9.33707 15.3068 7.8745C15.4944 7.41198 15.6569 6.94947 15.8319 6.47445C16.1569 6.59945 16.4569 6.71196 16.7569 6.82446C17.1319 6.96197 17.3194 6.87446 17.4569 6.51195C17.6819 5.89942 17.9195 5.28687 18.1445 4.68684C18.282 4.31183 18.1945 4.12432 17.8195 3.98682ZM11.1317 9.88707C10.9317 9.91207 10.7316 9.94958 10.5316 9.97459C10.2316 9.99959 10.0566 10.3871 10.3441 10.7121C10.4441 10.8246 10.5316 10.9371 10.6316 11.0496C11.5942 12.1622 11.7942 13.4372 11.3942 14.8123C11.2442 15.3248 11.0192 15.8248 10.8317 16.3499C8.71906 15.5623 6.61897 14.7748 4.50638 13.9748C4.71889 13.4247 4.88139 12.8872 5.1189 12.3872C5.76893 11.0371 6.81898 10.2496 8.31904 10.0871C8.95657 9.99958 9.08158 9.54956 8.71906 9.14954C8.25654 8.58702 7.83152 7.9995 7.68152 7.23696C9.88161 7.22446 12.0817 7.19945 14.3068 7.18695C13.6818 8.62451 12.7317 9.63706 11.1317 9.88707Z"
    fill="#181C30"/>
</svg>
