<svg width="40" height="40" viewBox="0 0 40 40" fill="none" xmlns="http://www.w3.org/2000/svg">
<path fill-rule="evenodd" clip-rule="evenodd" d="M0 29.8V10.2C0 9.0856 0.451427 8.01881 1.25714 7.22921C2.05714 6.44241 3.14857 6 4.28571 6H35.7143C36.8514 6 37.9429 6.44241 38.7429 7.22921C39.5486 8.01881 40 9.0856 40 10.2V29.8C40 30.9144 39.5486 31.9812 38.7429 32.7708C37.9429 33.5576 36.8514 34 35.7143 34H4.28571C3.14857 34 2.05714 33.5576 1.25714 32.7708C0.451427 31.9812 0 30.9144 0 29.8ZM37.1429 11.6V10.2C37.1429 9.8276 36.9943 9.47201 36.7257 9.20881C36.4571 8.94841 36.0914 8.8 35.7143 8.8H4.28571C3.90857 8.8 3.54286 8.94841 3.27429 9.20881C3.00571 9.47201 2.85714 9.8276 2.85714 10.2V11.6H37.1429ZM37.1429 17.2V14.4H2.85714V17.2H37.1429ZM2.85714 20V29.8C2.85714 30.1724 3.00571 30.528 3.27429 30.7912C3.54286 31.0516 3.90857 31.2 4.28571 31.2H35.7143C36.0914 31.2 36.4571 31.0516 36.7257 30.7912C36.9943 30.528 37.1429 30.1724 37.1429 29.8V20H2.85714ZM7.14286 28.4C6.35429 28.4 5.71429 27.7728 5.71429 27C5.71429 26.2272 6.35429 25.6 7.14286 25.6H11.4286C12.2171 25.6 12.8571 26.2272 12.8571 27C12.8571 27.7728 12.2171 28.4 11.4286 28.4H7.14286Z" fill="#208EFF"/>
</svg>
