<svg width="12" height="12" viewBox="0 0 12 12" fill="#474747" xmlns="http://www.w3.org/2000/svg">
  <path
    d="M5.62296 5.78046C6.43203 5.78046 7.13252 5.49564 7.70504 4.93369C8.27738 4.37183 8.56765 3.68436 8.56765 2.89014C8.56765 2.09619 8.27747 1.40863 7.70495 0.846588C7.13243 0.284821 6.43193 0 5.62296 0C4.8138 0 4.1134 0.284821 3.54097 0.84668C2.96854 1.40854 2.67827 2.0961 2.67827 2.89014C2.67827 3.68436 2.96854 4.37192 3.54097 4.93378C4.11358 5.49554 4.81408 5.78046 5.62296 5.78046ZM4.04764 1.3439C4.48687 0.912781 5.00212 0.703217 5.62296 0.703217C6.2437 0.703217 6.75905 0.912781 7.19837 1.3439C7.63761 1.77512 7.85121 2.28094 7.85121 2.89014C7.85121 3.49951 7.63761 4.00525 7.19837 4.43646C6.75905 4.86768 6.2437 5.07724 5.62296 5.07724C5.00231 5.07724 4.48706 4.86758 4.04764 4.43646C3.60831 4.00534 3.39471 3.49951 3.39471 2.89014C3.39471 2.28094 3.60831 1.77512 4.04764 1.3439Z"
    />
  <path
    d="M10.7754 9.22742C10.7589 8.99359 10.7255 8.73853 10.6763 8.46918C10.6267 8.19781 10.5628 7.94128 10.4863 7.70682C10.4072 7.46448 10.2999 7.22516 10.1669 6.99582C10.0292 6.75778 9.86725 6.55051 9.68555 6.37994C9.49555 6.20151 9.26292 6.05804 8.99392 5.9534C8.72585 5.8493 8.42877 5.79657 8.11098 5.79657C7.98618 5.79657 7.86548 5.84683 7.63238 5.99579C7.48893 6.08762 7.32112 6.19382 7.13383 6.31128C6.97367 6.41144 6.75672 6.50528 6.48874 6.59024C6.22729 6.67328 5.96183 6.71539 5.69972 6.71539C5.43781 6.71539 5.17235 6.67328 4.91071 6.59024C4.64301 6.50537 4.42596 6.41153 4.26609 6.31137C4.08056 6.19501 3.91267 6.08881 3.76707 5.9957C3.53416 5.84674 3.41346 5.79648 3.28866 5.79648C2.97078 5.79648 2.67379 5.8493 2.40581 5.95349C2.13699 6.05795 1.90427 6.20142 1.71408 6.38004C1.53238 6.55069 1.37046 6.75787 1.23278 6.99582C1.10005 7.22516 0.992599 7.46439 0.913502 7.70691C0.83711 7.94138 0.773216 8.19781 0.723594 8.46918C0.674345 8.73816 0.641045 8.99332 0.624536 9.22769C0.608306 9.45685 0.600098 9.69534 0.600098 9.93631C0.600098 10.5627 0.802971 11.0698 1.20303 11.4438C1.59814 11.8129 2.12085 12 2.75671 12H8.64349C9.27915 12 9.80187 11.8129 10.1971 11.4438C10.5972 11.0701 10.8001 10.5628 10.8001 9.93622C10.8 9.69443 10.7917 9.45593 10.7754 9.22742ZM9.70309 10.9343C9.44201 11.1782 9.0954 11.2968 8.64339 11.2968H2.75671C2.30461 11.2968 1.958 11.1782 1.69701 10.9344C1.44097 10.6952 1.31654 10.3686 1.31654 9.93631C1.31654 9.71146 1.3241 9.48944 1.33921 9.27631C1.35395 9.0672 1.38407 8.83749 1.42875 8.59341C1.47287 8.35236 1.52902 8.12613 1.59581 7.92133C1.65989 7.72495 1.74729 7.53049 1.85567 7.34317C1.95912 7.16464 2.07813 7.01147 2.20947 6.88806C2.33231 6.77261 2.48715 6.67813 2.66959 6.60727C2.83833 6.54172 3.02795 6.50583 3.23381 6.50043C3.2589 6.51352 3.30358 6.53851 3.37596 6.58484C3.52324 6.67905 3.69301 6.78653 3.88067 6.90417C4.09222 7.03656 4.36477 7.15613 4.69039 7.25931C5.02329 7.36496 5.36281 7.41861 5.69982 7.41861C6.03682 7.41861 6.37643 7.36496 6.70915 7.2594C7.03505 7.15604 7.30751 7.03656 7.51933 6.90399C7.71139 6.78351 7.87639 6.67914 8.02367 6.58484C8.09605 6.5386 8.14073 6.51352 8.16582 6.50043C8.37177 6.50583 8.5614 6.54172 8.73023 6.60727C8.91258 6.67813 9.06742 6.77271 9.19026 6.88806C9.32159 7.01138 9.44061 7.16455 9.54406 7.34326C9.65253 7.53049 9.74003 7.72504 9.80401 7.92123C9.87089 8.12631 9.92714 8.35245 9.97116 8.59332C10.0157 8.83786 10.046 9.06766 10.0607 9.2764V9.27658C10.0759 9.48889 10.0836 9.71082 10.0837 9.93631C10.0836 10.3687 9.95913 10.6952 9.70309 10.9343Z"
    />
</svg>
