<svg width="12" height="12" viewBox="0 0 12 12" fill="none" xmlns="http://www.w3.org/2000/svg">
<path d="M6 0C2.69604 0 0 2.6965 0 6C0 9.30396 2.6965 12 6 12C9.30396 12 12 9.3035 12 6C12 2.69595 9.3035 0 6 0ZM6 11.2969C3.07928 11.2969 0.703125 8.92072 0.703125 6C0.703125 3.07928 3.07928 0.703125 6 0.703125C8.92072 0.703125 11.2969 3.07928 11.2969 6C11.2969 8.92072 8.92072 11.2969 6 11.2969Z" fill="#474747"/>
<path d="M5.64844 3.1875C5.64844 2.99334 5.80584 2.83594 6 2.83594C6.19416 2.83594 6.35156 2.99334 6.35156 3.1875V6C6.35156 6.19416 6.19416 6.35156 6 6.35156C5.80584 6.35156 5.64844 6.19416 5.64844 6V3.1875Z" fill="#474747"/>
<path d="M7.8762 3.45214C7.72002 3.33679 7.50349 3.3957 7.40626 3.56376C7.30902 3.73184 7.36847 3.94511 7.52092 4.06537C8.10786 4.52839 8.46094 5.24212 8.46094 6C8.46094 7.35699 7.35699 8.46094 6 8.46094C4.64301 8.46094 3.53906 7.35699 3.53906 6C3.53906 5.24212 3.89214 4.52839 4.47908 4.06537C4.63153 3.94511 4.69098 3.73184 4.59374 3.56376C4.49651 3.3957 4.27998 3.33679 4.1238 3.45214C3.3218 4.0445 2.83594 4.99183 2.83594 6C2.83594 7.74463 4.25537 9.16406 6 9.16406C7.74463 9.16406 9.16406 7.74463 9.16406 6C9.16406 4.99183 8.6782 4.0445 7.8762 3.45214Z" fill="#474747"/>
</svg>
