<svg xmlns="http://www.w3.org/2000/svg" width="12" height="12" viewBox="0 0 12 12" fill="none">
  <g clip-path="url(#clip0_7427_5360)">
    <path d="M0.995859 4.57031C0.828515 4.75711 0.726562 5.00367 0.726562 5.27344C0.726562 5.85492 1.19977 6.32813 1.78125 6.32813H3.82828C3.62555 6.94336 3.53906 7.75969 3.53906 8.10961V8.46094C3.53906 9.23625 4.17 9.86719 4.94531 9.86719H5.29688C5.45813 9.86719 5.59875 9.7575 5.63789 9.60094L5.82938 8.83477C6.09773 7.7618 6.94969 6.57797 7.83141 6.36281C7.98586 6.75375 8.36719 7.03125 8.8125 7.03125H10.9219C11.1159 7.03125 11.2734 6.87375 11.2734 6.67969V0.351562C11.2734 0.1575 11.1159 0 10.9219 0L8.8125 0C8.3932 0 8.03039 0.245859 7.86047 0.601172L6.6525 0.198516C6.25758 0.0667969 5.84602 0 5.42953 0L2.48438 0C1.90289 0 1.42969 0.473203 1.42969 1.05469C1.42969 1.1918 1.45594 1.32305 1.50375 1.44328C1.05656 1.56539 0.726563 1.97531 0.726562 2.46094C0.726562 2.7307 0.828515 2.97727 0.995859 3.16406C0.828515 3.35086 0.726562 3.59742 0.726562 3.86719C0.726562 4.13695 0.828515 4.38352 0.995859 4.57031ZM8.46094 1.05469C8.46094 0.860859 8.61867 0.703125 8.8125 0.703125H10.5703V6.32813H8.8125C8.61867 6.32813 8.46094 6.17039 8.46094 5.97656V1.05469ZM2.48438 4.21875H1.78125C1.58742 4.21875 1.42969 4.06102 1.42969 3.86719C1.42969 3.67336 1.58742 3.51563 1.78125 3.51563H2.48438C2.67844 3.51563 2.83594 3.35813 2.83594 3.16406C2.83594 2.97 2.67844 2.8125 2.48438 2.8125H1.78125C1.58742 2.8125 1.42969 2.65477 1.42969 2.46094C1.42969 2.26711 1.58742 2.10938 1.78125 2.10938H2.48438C2.67844 2.10938 2.83594 1.95188 2.83594 1.75781C2.83594 1.56375 2.67844 1.40625 2.48438 1.40625C2.29055 1.40625 2.13281 1.24852 2.13281 1.05469C2.13281 0.860859 2.29055 0.703125 2.48438 0.703125H5.42953C5.77031 0.703125 6.10711 0.757734 6.43031 0.865547L7.75781 1.30805V5.65828C7.20633 5.76305 6.66656 6.11227 6.1793 6.68391C5.70352 7.24219 5.31773 7.98234 5.14734 8.66414L5.02242 9.16406H4.94531C4.55766 9.16406 4.24219 8.84859 4.24219 8.46094V8.10961C4.24219 7.63758 4.38984 6.73219 4.57875 6.32813H5.29688C5.49094 6.32813 5.64844 6.17063 5.64844 5.97656C5.64844 5.7825 5.49094 5.625 5.29688 5.625H1.78125C1.58742 5.625 1.42969 5.46727 1.42969 5.27344C1.42969 5.07961 1.58742 4.92188 1.78125 4.92188H2.48438C2.67844 4.92188 2.83594 4.76438 2.83594 4.57031C2.83594 4.37625 2.67844 4.21875 2.48438 4.21875Z" fill="#474747"/>
    <path d="M9.51562 1.40625C9.32146 1.40625 9.16406 1.56365 9.16406 1.75781C9.16406 1.95198 9.32146 2.10938 9.51562 2.10938C9.70979 2.10938 9.86719 1.95198 9.86719 1.75781C9.86719 1.56365 9.70979 1.40625 9.51562 1.40625Z" fill="#474747"/>
    <path d="M4.59375 12C4.78791 12 4.94531 11.8426 4.94531 11.6484V10.9219C4.94531 10.7277 4.78791 10.5703 4.59375 10.5703C4.39959 10.5703 4.24219 10.7277 4.24219 10.9219V11.6484C4.24219 11.8426 4.39959 12 4.59375 12Z" fill="#474747"/>
    <path d="M6.08531 10.4497L6.58249 10.9468C6.71977 11.0841 6.94238 11.0841 7.07967 10.9468C7.21697 10.8095 7.21697 10.587 7.07967 10.4497L6.58249 9.95248C6.44522 9.8152 6.22259 9.81518 6.08531 9.95248C5.94802 10.0898 5.94802 10.3124 6.08531 10.4497Z" fill="#474747"/>
    <path d="M2.10783 10.9468C2.2451 11.0841 2.46771 11.0841 2.60501 10.9468L3.10219 10.4497C3.23948 10.3124 3.23948 10.0898 3.10219 9.9525C2.96491 9.8152 2.74231 9.81518 2.60501 9.95248L2.10783 10.4497C1.97053 10.587 1.97053 10.8095 2.10783 10.9468Z" fill="#474747"/>
  </g>
  <defs>
    <clipPath id="clip0_7427_5360">
      <rect width="12" height="12" fill="white"/>
    </clipPath>
  </defs>
</svg>
