<svg width="16" height="16" viewBox="0 0 16 16" fill="white" xmlns="http://www.w3.org/2000/svg">
  <path
    d="M12.9814 0.876719H11.2056C10.737 0.340281 10.0465 0 9.27694 0H6.72325C5.95374 0 5.26317 0.340281 4.79458 0.876719H3.01882C2.23654 0.876719 1.6001 1.50881 1.6001 2.28572V14.591C1.6001 15.3679 2.23654 16 3.01882 16H12.9814C13.7637 16 14.4001 15.3679 14.4001 14.591V2.28572C14.4001 1.50878 13.7637 0.876719 12.9814 0.876719ZM6.72325 0.939344H9.27694C10.0076 0.939344 10.6145 1.42419 10.8139 2.06653H5.1863C5.38537 1.42531 5.99141 0.939344 6.72325 0.939344ZM13.4543 14.591C13.4543 14.85 13.2421 15.0607 12.9814 15.0607H3.01882C2.75806 15.0607 2.54591 14.85 2.54591 14.591V2.28572C2.54591 2.02675 2.75806 1.81606 3.01882 1.81606H4.27504C4.20679 2.0445 4.16956 2.28606 4.16956 2.53622C4.16956 2.79559 4.38129 3.00588 4.64246 3.00588H11.3577C11.6189 3.00588 11.8306 2.79559 11.8306 2.53622C11.8306 2.28606 11.7934 2.0445 11.7251 1.81606H12.9814C13.2421 1.81606 13.4543 2.02675 13.4543 2.28572V14.591Z"
    />
  <path
    d="M5.66898 9.33263L4.9735 10.0233L4.80344 9.85444C4.61879 9.671 4.31934 9.671 4.13466 9.85444C3.94997 10.0378 3.94997 10.3352 4.13466 10.5186L4.63909 11.0196C4.82374 11.203 5.12319 11.203 5.30787 11.0196L6.33774 9.99678C6.52242 9.81338 6.52242 9.516 6.33774 9.33259C6.15308 9.14919 5.85364 9.14919 5.66898 9.33263Z"
    />
  <path
    d="M11.4996 9.70647H7.68483C7.42366 9.70647 7.21192 9.91675 7.21192 10.1761C7.21192 10.4355 7.42366 10.6458 7.68483 10.6458H11.4996C11.7608 10.6458 11.9725 10.4355 11.9725 10.1761C11.9725 9.91675 11.7608 9.70647 11.4996 9.70647Z"
    />
  <path
    d="M5.66898 12.0254L4.9735 12.7161L4.80344 12.5472C4.61879 12.3638 4.31934 12.3638 4.13466 12.5472C3.94997 12.7306 3.94997 13.028 4.13466 13.2114L4.63909 13.7123C4.82374 13.8958 5.12319 13.8958 5.30787 13.7123L6.33774 12.6895C6.52242 12.5061 6.52242 12.2087 6.33774 12.0253C6.15308 11.8419 5.85364 11.8419 5.66898 12.0254Z"
    />
  <path
    d="M11.4996 12.3992H7.68483C7.42366 12.3992 7.21192 12.6095 7.21192 12.8689C7.21192 13.1282 7.42366 13.3385 7.68483 13.3385H11.4996C11.7608 13.3385 11.9725 13.1282 11.9725 12.8689C11.9725 12.6095 11.7608 12.3992 11.4996 12.3992Z"
    />
  <path
    d="M8.90196 7.53366L10.3646 6.08103V6.137C10.3646 6.39638 10.5764 6.60666 10.8375 6.60666C11.0987 6.60666 11.3104 6.39638 11.3104 6.137C11.3104 4.80847 11.3126 4.93216 11.305 4.87969C11.2716 4.64991 11.0732 4.47744 10.8374 4.4775H9.63951C9.37834 4.4775 9.1666 4.68778 9.1666 4.94716C9.1666 5.20653 9.37834 5.41681 9.63951 5.41681H9.69584L8.56758 6.53734L7.13644 5.11603C6.95179 4.93259 6.65235 4.93259 6.46766 5.11603L4.7652 6.80684C4.58051 6.99025 4.58051 7.28762 4.7652 7.47103C4.94985 7.65447 5.2493 7.65447 5.43398 7.47103L6.80207 6.11234L8.23321 7.53366C8.41783 7.71706 8.71731 7.71709 8.90196 7.53366Z"
    />
</svg>
