<svg width="12" height="12" viewBox="0 0 12 12" fill="none" xmlns="http://www.w3.org/2000/svg">
<path d="M6.29767 11.0315C6.84783 11.5678 7.72862 11.5636 8.27353 11.0187C8.41214 10.8801 8.51628 10.7188 8.58515 10.5464L8.59171 10.5297L11.9064 1.9116C12.0994 1.40975 11.9942 0.817872 11.5882 0.411818C11.1821 0.00574923 10.5903 -0.0994093 10.0884 0.0936353L1.47033 3.40828C1.29161 3.47701 1.12435 3.5834 0.981285 3.7265C0.43211 4.2757 0.432127 5.16609 0.981337 5.71527C1.16162 5.89555 1.37994 6.0173 1.61102 6.07916L4.74962 6.91988L4.76391 6.92395C4.83488 6.94538 4.90186 6.98408 4.95888 7.04111C5.01972 7.10195 5.05969 7.17408 5.08013 7.25039L5.92083 10.389C5.9827 10.6201 6.10445 10.8384 6.28469 11.0187L6.29767 11.0315ZM7.61061 10.3558C7.42756 10.5388 7.13078 10.5388 6.94768 10.3558C6.88681 10.2949 6.84686 10.2228 6.82645 10.1465L5.98574 7.00783C5.92386 6.77682 5.80216 6.55851 5.62182 6.37817C5.44152 6.19787 5.22317 6.07611 4.99214 6.01426L1.85352 5.17356C1.77729 5.15315 1.7051 5.11317 1.64426 5.05233C1.46405 4.87213 1.46121 4.5817 1.6358 4.39806L1.64424 4.38939L1.65344 4.38043C1.69656 4.33952 1.74485 4.30884 1.79587 4.28771L1.80684 4.28333L10.4249 0.968651L10.4329 0.965681C10.5997 0.904944 10.7927 0.942155 10.9253 1.07474C11.0599 1.2094 11.0962 1.40639 11.0313 1.57501L7.71671 10.1931L7.71232 10.2041C7.68965 10.2588 7.65603 10.3103 7.61061 10.3558Z" fill="#474747"/>
<path d="M0.137296 11.8627C0.317497 12.0429 0.607918 12.0457 0.791565 11.8712L0.800234 11.8627L2.78902 9.8739L2.79746 9.86523C2.97203 9.68159 2.96922 9.39118 2.78902 9.21098C2.60881 9.03078 2.31841 9.02796 2.13476 9.20253L2.1261 9.21098L0.137296 11.1998L0.12885 11.2084C-0.0457194 11.3921 -0.0429063 11.6825 0.137296 11.8627Z" fill="#474747"/>
<path d="M2.78903 11.8627C2.96923 12.0429 3.25965 12.0457 3.4433 11.8711L3.45196 11.8627L4.77781 10.5368L4.78625 10.5282C4.96083 10.3445 4.95801 10.0541 4.77781 9.87391C4.59761 9.69371 4.30719 9.69089 4.12354 9.86547L4.11487 9.87391L2.78903 11.1998L2.78058 11.2084C2.60601 11.3921 2.60882 11.6825 2.78903 11.8627Z" fill="#474747"/>
<path d="M0.137305 9.21097C0.317507 9.39117 0.607928 9.39399 0.791575 9.21942L0.800244 9.21097L2.12609 7.88513L2.13453 7.87646C2.30911 7.69281 2.30629 7.40239 2.12609 7.22219C1.94588 7.04198 1.65546 7.03917 1.47182 7.21374L1.46315 7.22219L0.137305 8.54803L0.128859 8.5567C-0.04571 8.74035 -0.0428969 9.03077 0.137305 9.21097Z" fill="#474747"/>
<path d="M6.28474 5.71525C6.46494 5.89546 6.75536 5.89827 6.93901 5.7237L6.94768 5.71525L8.93646 3.72645L8.94491 3.71778C9.11948 3.53414 9.11666 3.24373 8.93646 3.06353C8.75626 2.88333 8.46585 2.88051 8.28221 3.05508L8.27354 3.06353L6.28474 5.05231L6.27629 5.06098C6.10172 5.24463 6.10454 5.53505 6.28474 5.71525Z" fill="#474747"/>
</svg>
