<svg width="20" height="20" viewBox="0 0 20 20" fill="none" xmlns="http://www.w3.org/2000/svg">
  <path
    d="M19.7928 4.49287L15.5071 0.207155C15.4404 0.140954 15.3612 0.0885786 15.2742 0.0530324C15.1872 0.0174863 15.094 -0.000531556 15 1.19388e-05H6.42857C5.86025 1.19388e-05 5.31521 0.225776 4.91334 0.62764C4.51148 1.0295 4.28571 1.57455 4.28571 2.14287V6.42858C4.28571 6.61802 4.36097 6.7997 4.49492 6.93365C4.62888 7.06761 4.81056 7.14286 5 7.14286C5.18944 7.14286 5.37112 7.06761 5.50507 6.93365C5.63903 6.7997 5.71428 6.61802 5.71428 6.42858V2.14287C5.71428 1.95343 5.78954 1.77175 5.92349 1.63779C6.05745 1.50384 6.23913 1.42858 6.42857 1.42858H14.2857V3.57144C14.2857 4.13976 14.5115 4.6848 14.9133 5.08667C15.3152 5.48853 15.8602 5.71429 16.4286 5.71429H18.5714V17.8571C18.5714 18.0466 18.4962 18.2283 18.3622 18.3622C18.2283 18.4962 18.0466 18.5714 17.8571 18.5714H12.1429C11.9534 18.5714 11.7717 18.6467 11.6378 18.7806C11.5038 18.9146 11.4286 19.0963 11.4286 19.2857C11.4286 19.4752 11.5038 19.6568 11.6378 19.7908C11.7717 19.9247 11.9534 20 12.1429 20H17.8571C18.4255 20 18.9705 19.7742 19.3724 19.3724C19.7742 18.9705 20 18.4255 20 17.8571V5.00001C20.0005 4.906 19.9825 4.81282 19.947 4.72579C19.9114 4.63876 19.859 4.55961 19.7928 4.49287ZM15.7143 3.57144V2.43572L17.5643 4.28572H16.4286C16.2391 4.28572 16.0574 4.21047 15.9235 4.07651C15.7895 3.94256 15.7143 3.76088 15.7143 3.57144Z"
    fill="#ABB0C2"/>
  <path
    d="M5.71428 8.57143C4.58411 8.57143 3.47931 8.90657 2.5396 9.53446C1.59989 10.1624 0.867477 11.0548 0.434976 12.099C0.00247589 13.1431 -0.110686 14.2921 0.109801 15.4005C0.330288 16.509 0.87452 17.5272 1.67368 18.3263C2.47283 19.1255 3.49102 19.6697 4.59948 19.8902C5.70795 20.1107 6.8569 19.9975 7.90104 19.565C8.94519 19.1325 9.83764 18.4001 10.4655 17.4604C11.0934 16.5207 11.4286 15.4159 11.4286 14.2857C11.4286 12.7702 10.8265 11.3167 9.75489 10.2451C8.68326 9.17347 7.22981 8.57143 5.71428 8.57143ZM5.71428 18.5714C4.86665 18.5714 4.03805 18.3201 3.33327 17.8492C2.62849 17.3782 2.07918 16.7089 1.7548 15.9258C1.43043 15.1427 1.34556 14.281 1.51092 13.4496C1.67629 12.6183 2.08446 11.8546 2.68383 11.2553C3.2832 10.6559 4.04684 10.2477 4.87818 10.0824C5.70953 9.91699 6.57124 10.0019 7.35435 10.3262C8.13747 10.6506 8.8068 11.1999 9.27772 11.9047C9.74864 12.6095 10 13.4381 10 14.2857C10 15.4224 9.54847 16.5124 8.74474 17.3162C7.94101 18.1199 6.85093 18.5714 5.71428 18.5714Z"
    fill="#ABB0C2"/>
  <path
    d="M6.63571 12.35L3.77857 15.2071C3.71162 15.2735 3.65848 15.3525 3.62222 15.4396C3.58596 15.5266 3.56729 15.62 3.56729 15.7143C3.56729 15.8086 3.58596 15.9019 3.62222 15.989C3.65848 16.076 3.71162 16.155 3.77857 16.2214C3.84497 16.2884 3.92397 16.3415 4.01102 16.3778C4.09806 16.414 4.19142 16.4327 4.28571 16.4327C4.38001 16.4327 4.47337 16.414 4.56041 16.3778C4.64745 16.3415 4.72645 16.2884 4.79286 16.2214L7.65 13.3643C7.7166 13.2977 7.76943 13.2186 7.80547 13.1316C7.84151 13.0446 7.86006 12.9513 7.86006 12.8571C7.86006 12.763 7.84151 12.6697 7.80547 12.5827C7.76943 12.4957 7.7166 12.4166 7.65 12.35C7.5834 12.2834 7.50433 12.2306 7.41732 12.1945C7.3303 12.1585 7.23704 12.1399 7.14285 12.1399C7.04867 12.1399 6.95541 12.1585 6.86839 12.1945C6.78137 12.2306 6.70231 12.2834 6.63571 12.35Z"
    fill="#ABB0C2"/>
  <path
    d="M4.28571 13.5714C4.6802 13.5714 5 13.2516 5 12.8571C5 12.4627 4.6802 12.1429 4.28571 12.1429C3.89123 12.1429 3.57143 12.4627 3.57143 12.8571C3.57143 13.2516 3.89123 13.5714 4.28571 13.5714Z"
    fill="#ABB0C2"/>
  <path
    d="M7.14285 16.4286C7.53734 16.4286 7.85714 16.1088 7.85714 15.7143C7.85714 15.3198 7.53734 15 7.14285 15C6.74837 15 6.42857 15.3198 6.42857 15.7143C6.42857 16.1088 6.74837 16.4286 7.14285 16.4286Z"
    fill="#ABB0C2"/>
  <path
    d="M12.1429 4.28572H7.85714C7.6677 4.28572 7.48602 4.36098 7.35206 4.49493C7.21811 4.62889 7.14285 4.81057 7.14285 5.00001C7.14285 5.18945 7.21811 5.37113 7.35206 5.50508C7.48602 5.63904 7.6677 5.71429 7.85714 5.71429H12.1429C12.3323 5.71429 12.514 5.63904 12.6479 5.50508C12.7819 5.37113 12.8571 5.18945 12.8571 5.00001C12.8571 4.81057 12.7819 4.62889 12.6479 4.49493C12.514 4.36098 12.3323 4.28572 12.1429 4.28572Z"
    fill="#ABB0C2"/>
  <path
    d="M16.4286 7.85715H12.1429C11.9534 7.85715 11.7717 7.9324 11.6378 8.06636C11.5038 8.20031 11.4286 8.38199 11.4286 8.57143C11.4286 8.76087 11.5038 8.94256 11.6378 9.07651C11.7717 9.21046 11.9534 9.28572 12.1429 9.28572H16.4286C16.618 9.28572 16.7997 9.21046 16.9336 9.07651C17.0676 8.94256 17.1428 8.76087 17.1428 8.57143C17.1428 8.38199 17.0676 8.20031 16.9336 8.06636C16.7997 7.9324 16.618 7.85715 16.4286 7.85715Z"
    fill="#ABB0C2"/>
  <path
    d="M16.4286 11.4286H13.5714C13.382 11.4286 13.2003 11.5038 13.0663 11.6378C12.9324 11.7717 12.8571 11.9534 12.8571 12.1429C12.8571 12.3323 12.9324 12.514 13.0663 12.6479C13.2003 12.7819 13.382 12.8571 13.5714 12.8571H16.4286C16.618 12.8571 16.7997 12.7819 16.9336 12.6479C17.0676 12.514 17.1428 12.3323 17.1428 12.1429C17.1428 11.9534 17.0676 11.7717 16.9336 11.6378C16.7997 11.5038 16.618 11.4286 16.4286 11.4286Z"
    fill="#ABB0C2"/>
  <path
    d="M16.4286 15H13.5714C13.382 15 13.2003 15.0753 13.0663 15.2092C12.9324 15.3432 12.8571 15.5248 12.8571 15.7143C12.8571 15.9037 12.9324 16.0854 13.0663 16.2194C13.2003 16.3533 13.382 16.4286 13.5714 16.4286H16.4286C16.618 16.4286 16.7997 16.3533 16.9336 16.2194C17.0676 16.0854 17.1428 15.9037 17.1428 15.7143C17.1428 15.5248 17.0676 15.3432 16.9336 15.2092C16.7997 15.0753 16.618 15 16.4286 15Z"
    fill="#ABB0C2"/>
</svg>
