<svg width="20" height="20" viewBox="0 0 20 20" fill="none" xmlns="http://www.w3.org/2000/svg">
<path d="M16.8002 1.5H3.20016C2.65911 1.5 2.14023 1.71493 1.75766 2.0975C1.37508 2.48008 1.16016 2.99896 1.16016 3.54V16.46C1.16016 17.001 1.37508 17.5199 1.75766 17.9025C2.14023 18.2851 2.65911 18.5 3.20016 18.5H16.8002C17.3412 18.5 17.8601 18.2851 18.2427 17.9025C18.6252 17.5199 18.8402 17.001 18.8402 16.46V3.54C18.8402 2.99896 18.6252 2.48008 18.2427 2.0975C17.8601 1.71493 17.3412 1.5 16.8002 1.5ZM17.4802 16.46C17.4802 16.6403 17.4085 16.8133 17.281 16.9408C17.1535 17.0684 16.9805 17.14 16.8002 17.14H3.20016C3.01981 17.14 2.84685 17.0684 2.71932 16.9408C2.5918 16.8133 2.52016 16.6403 2.52016 16.46V3.54C2.52016 3.35965 2.5918 3.18669 2.71932 3.05917C2.84685 2.93164 3.01981 2.86 3.20016 2.86H16.8002C16.9805 2.86 17.1535 2.93164 17.281 3.05917C17.4085 3.18669 17.4802 3.35965 17.4802 3.54V16.46Z" fill="#ABB0C2"/>
<path d="M14.4202 8.98C14.6005 8.98 14.7735 8.90836 14.901 8.78083C15.0285 8.65331 15.1002 8.48035 15.1002 8.3C15.1002 8.11965 15.0285 7.94669 14.901 7.81917C14.7735 7.69164 14.6005 7.62 14.4202 7.62H6.88236L7.76296 6.7394C7.89055 6.6118 7.96223 6.43875 7.96223 6.2583C7.96223 6.07785 7.89055 5.9048 7.76296 5.7772C7.63536 5.6496 7.4623 5.57792 7.28186 5.57792C7.10141 5.57792 6.92835 5.6496 6.80076 5.7772L4.76076 7.8172C4.66507 7.91211 4.59974 8.03331 4.57306 8.16542C4.54639 8.29753 4.55958 8.43459 4.61095 8.55919C4.66232 8.68379 4.74955 8.79031 4.86158 8.86524C4.97361 8.94016 5.10538 8.98011 5.24016 8.98H14.4202Z" fill="#ABB0C2"/>
<path d="M15.1002 11.36H5.92016C5.73981 11.36 5.56685 11.4316 5.43932 11.5592C5.3118 11.6867 5.24016 11.8597 5.24016 12.04C5.24016 12.2203 5.3118 12.3933 5.43932 12.5208C5.56685 12.6484 5.73981 12.72 5.92016 12.72H13.458L12.5774 13.6006C12.4498 13.7282 12.3781 13.9013 12.3781 14.0817C12.3781 14.2621 12.4498 14.4352 12.5774 14.5628C12.705 14.6904 12.878 14.7621 13.0585 14.7621C13.2389 14.7621 13.412 14.6904 13.5396 14.5628L15.5796 12.5228C15.6752 12.4279 15.7406 12.3067 15.7672 12.1746C15.7939 12.0425 15.7807 11.9054 15.7294 11.7808C15.678 11.6562 15.5908 11.5497 15.4787 11.4748C15.3667 11.3998 15.2349 11.3599 15.1002 11.36Z" fill="#ABB0C2"/>
</svg>
