<svg width="20" height="20" viewBox="0 0 20 20" fill="none" xmlns="http://www.w3.org/2000/svg">
  <path
    d="M9.37144 9.63409C10.7199 9.63409 11.8874 9.15939 12.8416 8.22281C13.7955 7.28638 14.2793 6.14059 14.2793 4.81689C14.2793 3.49365 13.7956 2.34772 12.8414 1.41098C11.8872 0.474701 10.7197 0 9.37144 0C8.02283 0 6.8555 0.474701 5.90145 1.41113C4.9474 2.34756 4.46361 3.4935 4.46361 4.81689C4.46361 6.14059 4.9474 7.28653 5.90145 8.22296C6.85581 9.15924 8.0233 9.63409 9.37144 9.63409ZM6.7459 2.23984C7.47795 1.5213 8.3367 1.17203 9.37144 1.17203C10.406 1.17203 11.2649 1.5213 11.9971 2.23984C12.7292 2.95853 13.0852 3.80157 13.0852 4.81689C13.0852 5.83252 12.7292 6.67542 11.9971 7.3941C11.2649 8.11279 10.406 8.46207 9.37144 8.46207C8.33702 8.46207 7.47826 8.11264 6.7459 7.3941C6.01369 6.67557 5.65769 5.83252 5.65769 4.81689C5.65769 3.80157 6.01369 2.95853 6.7459 2.23984Z"
    fill="#ABB0C2"/>
  <path
    d="M17.9588 15.379C17.9313 14.9893 17.8756 14.5642 17.7937 14.1153C17.711 13.663 17.6045 13.2355 17.477 12.8447C17.3452 12.4408 17.1663 12.0419 16.9447 11.6597C16.7151 11.263 16.4453 10.9175 16.1424 10.6332C15.8258 10.3358 15.438 10.0967 14.9897 9.92233C14.5429 9.74884 14.0478 9.66095 13.5181 9.66095C13.3101 9.66095 13.109 9.74472 12.7205 9.99298C12.4814 10.146 12.2017 10.323 11.8896 10.5188C11.6226 10.6857 11.261 10.8421 10.8144 10.9837C10.3787 11.1221 9.93622 11.1923 9.49938 11.1923C9.06285 11.1923 8.62042 11.1221 8.18436 10.9837C7.73819 10.8423 7.37644 10.6859 7.10998 10.519C6.80078 10.325 6.52095 10.148 6.27828 9.99283C5.8901 9.74457 5.68894 9.6608 5.48093 9.6608C4.95113 9.6608 4.45615 9.74884 4.00952 9.92249C3.56149 10.0966 3.17362 10.3357 2.85664 10.6334C2.55381 10.9178 2.28393 11.2631 2.05447 11.6597C1.83326 12.0419 1.65417 12.4406 1.52234 12.8448C1.39502 13.2356 1.28853 13.663 1.20583 14.1153C1.12374 14.5636 1.06825 14.9889 1.04073 15.3795C1.01368 15.7614 1 16.1589 1 16.5605C1 17.6045 1.33812 18.4497 2.00488 19.073C2.66341 19.6881 3.53459 20 4.59435 20H14.4056C15.4651 20 16.3363 19.6881 16.995 19.073C17.6619 18.4502 18 17.6047 18 16.5604C17.9998 16.1574 17.986 15.7599 17.9588 15.379ZM16.1717 18.2239C15.7365 18.6304 15.1588 18.828 14.4055 18.828H4.59435C3.84085 18.828 3.26316 18.6304 2.82819 18.224C2.40146 17.8253 2.19408 17.281 2.19408 16.5605C2.19408 16.1858 2.20667 15.8157 2.23185 15.4605C2.25641 15.112 2.30663 14.7292 2.38109 14.3224C2.45462 13.9206 2.54821 13.5435 2.65952 13.2022C2.76632 12.8749 2.91198 12.5508 3.09263 12.2386C3.26503 11.9411 3.46339 11.6858 3.68228 11.4801C3.88702 11.2877 4.14508 11.1302 4.44916 11.0121C4.73038 10.9029 5.04643 10.843 5.38952 10.834C5.43134 10.8559 5.50581 10.8975 5.62644 10.9747C5.87191 11.1317 6.15485 11.3109 6.46763 11.507C6.82021 11.7276 7.27446 11.9269 7.81716 12.0988C8.37199 12.2749 8.93786 12.3643 9.49953 12.3643C10.0612 12.3643 10.6272 12.2749 11.1817 12.099C11.7249 11.9267 12.179 11.7276 12.5321 11.5067C12.8521 11.3058 13.1272 11.1319 13.3726 10.9747C13.4933 10.8977 13.5677 10.8559 13.6095 10.834C13.9528 10.843 14.2688 10.9029 14.5502 11.0121C14.8541 11.1302 15.1122 11.2878 15.3169 11.4801C15.5358 11.6856 15.7342 11.9409 15.9066 12.2388C16.0874 12.5508 16.2332 12.8751 16.3399 13.2021C16.4513 13.5439 16.5451 13.9207 16.6184 14.3222C16.6927 14.7298 16.7431 15.1128 16.7677 15.4607V15.461C16.793 15.8148 16.8058 16.1847 16.8059 16.5605C16.8058 17.2812 16.5984 17.8253 16.1717 18.2239Z"
    fill="#ABB0C2"/>
</svg>
