<svg width="16" height="16" viewBox="0 0 16 16" fill="#787E94" xmlns="http://www.w3.org/2000/svg">
  <path
    d="M11.2266 6.89361C12.6975 6.89361 13.894 5.7063 13.894 4.24686C13.894 2.78742 12.6975 1.6001 11.2266 1.6001C9.75558 1.6001 8.55859 2.78742 8.55859 4.24686C8.55859 5.7063 9.75558 6.89361 11.2266 6.89361ZM12.7511 4.24686C12.7511 5.08094 12.067 5.75972 11.2266 5.75972C10.3856 5.75972 9.70145 5.08094 9.70145 4.24686C9.70145 3.41277 10.3856 2.73399 11.2266 2.73399C12.067 2.73399 12.7511 3.41277 12.7511 4.24686Z"
    />
  <path
    d="M11.2288 7.74403C10.6908 7.74403 10.1763 7.82957 9.69922 7.99816C9.40234 8.10308 9.24721 8.42752 9.35268 8.72234C9.4495 8.99152 9.7296 9.13281 10.0048 9.07731C10.031 9.07201 10.0572 9.0753 10.0831 9.06616C10.4364 8.94131 10.822 8.87792 11.2288 8.87792C12.1998 8.87792 13.1116 9.25192 13.7958 9.9307C14.4799 10.6098 14.8571 11.5144 14.8571 12.4781C14.8571 12.6887 14.7746 12.8864 14.6244 13.0356C14.4743 13.1843 14.2773 13.2662 14.0686 13.2662H10.9944C10.9542 13.2662 10.9189 13.2811 10.8811 13.2889C10.6216 13.3426 10.423 13.5599 10.423 13.8332C10.423 14.1462 10.6786 14.4001 10.9944 14.4001H14.0686C14.5826 14.4001 15.067 14.1999 15.4325 13.8373C15.7985 13.4744 16 12.9919 16 12.4781C16 11.2116 15.5039 10.0223 14.6038 9.129C13.7037 8.23596 12.505 7.74403 11.2288 7.74403Z"
    />
  <path
    d="M4.77344 6.89361C6.24442 6.89361 7.44141 5.7063 7.44141 4.24686C7.44141 2.78742 6.24442 1.6001 4.77344 1.6001C3.30246 1.6001 2.10603 2.78742 2.10603 4.24686C2.10603 5.7063 3.30246 6.89361 4.77344 6.89361ZM4.77344 2.73399C5.6144 2.73399 6.29855 3.41277 6.29855 4.24686C6.29855 5.08094 5.6144 5.75972 4.77344 5.75972C3.93304 5.75972 3.24888 5.08094 3.24888 4.24686C3.24888 3.41277 3.93304 2.73399 4.77344 2.73399Z"
    />
  <path
    d="M1.93304 14.3982H7.6144C8.68025 14.3982 9.54743 13.5378 9.54743 12.4803C9.54743 9.86869 7.40569 7.74403 4.77344 7.74403C2.14118 7.74403 0 9.86869 0 12.4803C0 13.5378 0.867188 14.3982 1.93304 14.3982ZM4.77344 8.87792C6.77567 8.87792 8.40458 10.494 8.40458 12.4803C8.40458 12.9127 8.05022 13.2643 7.6144 13.2643H1.93304C1.49721 13.2643 1.14286 12.9127 1.14286 12.4803C1.14286 10.494 2.77176 8.87792 4.77344 8.87792Z"
    />
</svg>
