<svg width="178" height="34" viewBox="0 0 178 34" fill="none" xmlns="http://www.w3.org/2000/svg">
<g clip-path="url(#clip0_2009_2416)">
<path d="M103.802 27.2379V11.8821H109.477C110.443 11.8491 111.403 12.039 112.274 12.4354C112.964 12.7611 113.535 13.2745 113.913 13.9097C114.276 14.54 114.462 15.2477 114.454 15.9653C114.476 16.5311 114.349 17.0932 114.084 17.6007C113.857 18.0114 113.525 18.3617 113.118 18.6197C112.723 18.871 112.288 19.0613 111.83 19.1835V19.3341C112.366 19.3779 112.882 19.549 113.329 19.8314C113.855 20.1553 114.287 20.5982 114.587 21.1201C114.944 21.7511 115.119 22.4602 115.094 23.1757C115.105 23.9032 114.914 24.6207 114.539 25.2558C114.131 25.9036 113.519 26.4143 112.789 26.7161C111.805 27.1118 110.741 27.2971 109.673 27.2589L103.802 27.2379ZM105.766 18.6232H109.411C109.966 18.6316 110.515 18.519 111.016 18.294C111.479 18.0866 111.874 17.7647 112.16 17.3625C112.445 16.9461 112.592 16.4581 112.582 15.9618C112.588 15.6421 112.526 15.3244 112.399 15.0282C112.272 14.732 112.082 14.4634 111.842 14.2389C111.348 13.7719 110.561 13.5385 109.481 13.5385H105.781L105.766 18.6232ZM105.766 25.585H109.666C110.949 25.585 111.861 25.3515 112.404 24.8846C112.663 24.6703 112.87 24.4052 113.011 24.1078C113.151 23.8103 113.222 23.4875 113.218 23.1617C113.221 22.6531 113.075 22.1536 112.796 21.7189C112.507 21.2718 112.093 20.9084 111.601 20.6683C111.031 20.3867 110.394 20.248 109.751 20.2656H105.755L105.766 25.585Z" fill="url(#paint0_linear_2009_2416)"/>
<path d="M132.028 19.565C132.067 21.015 131.749 22.4535 131.1 23.7673C130.541 24.886 129.658 25.8319 128.554 26.4953C127.436 27.1277 126.157 27.4616 124.854 27.4616C123.551 27.4616 122.273 27.1277 121.154 26.4953C120.052 25.8306 119.171 24.885 118.612 23.7673C117.963 22.4535 117.645 21.015 117.684 19.565C117.645 18.1151 117.963 16.6766 118.612 15.3628C119.172 14.2447 120.053 13.2982 121.154 12.6313C122.274 12.0011 123.552 11.6685 124.854 11.6685C126.157 11.6685 127.435 12.0011 128.554 12.6313C129.657 13.297 130.54 14.2437 131.1 15.3628C131.749 16.6766 132.067 18.1151 132.028 19.565ZM130.123 19.565C130.161 18.4066 129.921 17.2551 129.424 16.1962C129.014 15.3462 128.357 14.6245 127.529 14.1161C126.724 13.6558 125.802 13.4124 124.862 13.4124C123.921 13.4124 122.999 13.6558 122.194 14.1161C121.365 14.623 120.707 15.3451 120.3 16.1962C119.799 17.2544 119.559 18.4062 119.597 19.565C119.559 20.7238 119.799 21.8756 120.3 22.9339C120.707 23.784 121.365 24.505 122.194 25.0105C122.998 25.4731 123.921 25.7177 124.862 25.7177C125.802 25.7177 126.725 25.4731 127.529 25.0105C128.357 24.5039 129.015 23.7832 129.424 22.9339C129.921 21.8748 130.16 20.7234 130.123 19.565Z" fill="url(#paint1_linear_2009_2416)"/>
<path d="M135.229 27.2379H133.168L139.129 11.8716H141.171L147.12 27.2379H145.06L140.205 14.3124H140.079L135.229 27.2379ZM135.991 21.2461H144.297V22.8955H135.991V21.2461Z" fill="url(#paint2_linear_2009_2416)"/>
<path d="M149.655 27.238V11.8822H155.142C156.22 11.8425 157.292 12.0529 158.265 12.495C159.036 12.8618 159.667 13.4469 160.07 14.1689C160.472 14.9192 160.674 15.7511 160.658 16.5922C160.676 17.429 160.474 18.2568 160.07 19.0015C159.668 19.7152 159.039 20.291 158.272 20.6474C157.304 21.0799 156.241 21.2853 155.171 21.2462H150.732V19.5653H155.105C155.823 19.596 156.539 19.4764 157.203 19.2151C157.698 19.0053 158.105 18.6456 158.361 18.1926C158.617 17.6982 158.743 17.153 158.731 16.6027C158.741 16.0459 158.614 15.4944 158.361 14.9918C158.108 14.523 157.698 14.1463 157.195 13.9203C156.53 13.6432 155.806 13.5139 155.079 13.5421H151.623V27.238H149.655ZM157.295 20.3357L161.291 27.238H159.008L155.079 20.3357H157.295Z" fill="url(#paint3_linear_2009_2416)"/>
<path d="M168.92 27.2379H163.922V11.8821H169.153C170.564 11.843 171.959 12.1597 173.197 12.7996C174.322 13.4091 175.226 14.3274 175.787 15.4331C176.412 16.7172 176.713 18.1208 176.668 19.5338C176.708 20.9587 176.399 22.373 175.765 23.666C175.196 24.7847 174.278 25.7112 173.135 26.3204C171.839 26.9702 170.386 27.2866 168.92 27.2379ZM165.875 25.585H168.791C169.95 25.6254 171.1 25.3715 172.121 24.8496C172.998 24.3655 173.69 23.6296 174.097 22.7485C174.557 21.7338 174.786 20.6381 174.766 19.5338C174.794 18.4338 174.576 17.3406 174.126 16.326C173.729 15.464 173.058 14.7406 172.206 14.2564C171.236 13.7446 170.137 13.4939 169.028 13.5315H165.89L165.875 25.585Z" fill="url(#paint4_linear_2009_2416)"/>
<path d="M44.2327 27.2554H40L45.5092 11.8296H50.7594L56.2649 27.2729H52.0248L48.1916 15.7167H48.0658L44.2327 27.2554ZM43.674 21.1796H52.5539V24.0127H43.674V21.1796Z" fill="white"/>
<path d="M58.0261 27.2554V11.8296H61.9702V24.2263H68.7596V27.2554H58.0261Z" fill="white"/>
<path d="M70.8019 27.2555V11.8297H77.5321C78.6303 11.8032 79.7183 12.0341 80.6993 12.5021C81.5617 12.9299 82.2768 13.5824 82.7601 14.3826C83.263 15.2385 83.5182 16.2049 83.5001 17.1841C83.5243 18.1639 83.2687 19.1318 82.7601 19.9856C82.2671 20.7829 81.5376 21.4258 80.6623 21.8346C79.6535 22.2939 78.5438 22.5195 77.4248 22.4929H73.2624V19.5338H76.6885C77.1995 19.548 77.7067 19.4472 78.1685 19.2397C78.5538 19.0571 78.8721 18.7692 79.0824 18.4132C79.2868 18.028 79.3932 17.6029 79.3932 17.1718C79.3932 16.7407 79.2868 16.3156 79.0824 15.9304C78.8718 15.5778 78.5513 15.2953 78.1648 15.1215C77.7017 14.9182 77.195 14.8199 76.6848 14.8343H74.7424V27.2695L70.8019 27.2555Z" fill="white"/>
<path d="M85.4315 27.2554V11.8296H89.3719V18.0279H95.8024V11.8296H99.7317V27.2729H95.8061V21.0501H89.3719V27.2554H85.4315Z" fill="white"/>
</g>
<g clip-path="url(#clip1_2009_2416)">
<path d="M33.4017 2.38873C32.0895 0.858031 30.2286 0.0231057 28.2006 -8.6695e-05C26.2681 -0.0928561 24.3833 0.602915 23.0234 1.94807L2.00429 22.4037C-0.787124 25.1172 -0.643974 29.5934 2.38602 32.1445C3.57893 33.1418 5.082 33.6984 6.63278 33.7448C8.51758 33.7912 10.3069 33.0954 11.643 31.7966L21.3294 22.3805V27.2277C21.3294 30.7298 24.0493 33.7216 27.628 33.9767C31.6362 34.2782 34.9763 31.1936 34.9763 27.3437V6.77208C35.0002 5.17181 34.4753 3.59473 33.4017 2.38873ZM33.7834 27.3437C33.7834 30.3587 31.2783 32.7939 28.1768 32.7939C25.0752 32.7939 22.5701 30.3587 22.5701 27.3437V20.4324V20.4092C22.5224 20.2932 22.4508 20.2005 22.3315 20.1309C22.2599 20.0845 22.1645 20.0613 22.069 20.0613C22.0452 20.0613 21.9975 20.0845 21.9736 20.0845C21.9498 20.0845 21.9259 20.1077 21.9259 20.1077L10.808 30.9153C9.75821 31.9358 8.35057 32.5156 6.84751 32.5156C5.34444 32.5156 3.9368 31.959 2.88704 30.9153C0.692086 28.7816 0.692086 25.326 2.88704 23.1923L23.9061 2.783C25.0275 1.69296 26.5783 1.11315 28.1768 1.18272H28.2006C29.7037 1.18272 31.0875 1.76253 32.1611 2.783C33.2108 3.80346 33.8073 5.17181 33.8073 6.63293V27.3437H33.7834Z" fill="url(#paint5_linear_2009_2416)"/>
</g>
<defs>
<linearGradient id="paint0_linear_2009_2416" x1="103.809" y1="19.5652" x2="176.668" y2="19.5652" gradientUnits="userSpaceOnUse">
<stop stop-color="#F68D42"/>
<stop offset="0.37" stop-color="#EF3831"/>
<stop offset="0.39" stop-color="#EF3635"/>
<stop offset="0.66" stop-color="#ED1966"/>
<stop offset="0.88" stop-color="#A8408E"/>
<stop offset="1" stop-color="#8951A0"/>
</linearGradient>
<linearGradient id="paint1_linear_2009_2416" x1="103.809" y1="19.565" x2="176.668" y2="19.565" gradientUnits="userSpaceOnUse">
<stop stop-color="#F68D42"/>
<stop offset="0.37" stop-color="#EF3831"/>
<stop offset="0.39" stop-color="#EF3635"/>
<stop offset="0.66" stop-color="#ED1966"/>
<stop offset="0.88" stop-color="#A8408E"/>
<stop offset="1" stop-color="#8951A0"/>
</linearGradient>
<linearGradient id="paint2_linear_2009_2416" x1="103.809" y1="19.5652" x2="176.668" y2="19.5652" gradientUnits="userSpaceOnUse">
<stop stop-color="#F68D42"/>
<stop offset="0.37" stop-color="#EF3831"/>
<stop offset="0.39" stop-color="#EF3635"/>
<stop offset="0.66" stop-color="#ED1966"/>
<stop offset="0.88" stop-color="#A8408E"/>
<stop offset="1" stop-color="#8951A0"/>
</linearGradient>
<linearGradient id="paint3_linear_2009_2416" x1="103.809" y1="19.5653" x2="176.668" y2="19.5653" gradientUnits="userSpaceOnUse">
<stop stop-color="#F68D42"/>
<stop offset="0.37" stop-color="#EF3831"/>
<stop offset="0.39" stop-color="#EF3635"/>
<stop offset="0.66" stop-color="#ED1966"/>
<stop offset="0.88" stop-color="#A8408E"/>
<stop offset="1" stop-color="#8951A0"/>
</linearGradient>
<linearGradient id="paint4_linear_2009_2416" x1="103.809" y1="19.5653" x2="176.668" y2="19.5653" gradientUnits="userSpaceOnUse">
<stop stop-color="#F68D42"/>
<stop offset="0.37" stop-color="#EF3831"/>
<stop offset="0.39" stop-color="#EF3635"/>
<stop offset="0.66" stop-color="#ED1966"/>
<stop offset="0.88" stop-color="#A8408E"/>
<stop offset="1" stop-color="#8951A0"/>
</linearGradient>
<linearGradient id="paint5_linear_2009_2416" x1="0.000197524" y1="16.9974" x2="35.0046" y2="16.9974" gradientUnits="userSpaceOnUse">
<stop offset="2.02456e-07" stop-color="#F68D42"/>
<stop offset="0.3715" stop-color="#EF3831"/>
<stop offset="0.5424" stop-color="#EE2854"/>
<stop offset="0.662" stop-color="#ED1966"/>
<stop offset="0.723" stop-color="#D92D70"/>
<stop offset="0.9128" stop-color="#A14A91"/>
<stop offset="1" stop-color="#8951A0"/>
</linearGradient>
<clipPath id="clip0_2009_2416">
<rect width="138" height="25" fill="white" transform="translate(40 9)"/>
</clipPath>
<clipPath id="clip1_2009_2416">
<rect width="35" height="34" fill="white"/>
</clipPath>
</defs>
</svg>
